<svg width="118" height="172" viewBox="0 0 118 172" fill="none" xmlns="http://www.w3.org/2000/svg">
<path d="M111.469 80.9379C111.469 80.9379 114.899 77.7161 116.716 75.8513C118.534 73.9866 114.568 73.9263 112.614 76.25C110.659 78.5739 111.469 80.9379 111.469 80.9379Z" fill="#F9B384"/>
<path d="M30.7568 95.238C20.8217 91.3686 13.9242 87.2537 9.91986 84.5136C7.32433 82.7375 6.01153 79.6058 6.54339 76.5061L11.6666 46.6431C12.1939 43.5695 14.2319 40.9562 17.098 39.7274C25.3172 36.2031 33.3197 34.189 40.3815 33.2124C40.3815 33.2124 44.3373 32.8933 49.3824 33.3907C52.7024 33.7181 60.3026 35.9577 65.1339 37.4581C67.8637 38.306 70.0546 40.35 71.0884 43.0149C73.114 48.2365 76.4049 57.0537 77.4542 61.8191C81.0784 78.2762 80.4842 77.0582 80.4842 77.0582L84.2271 102.368L44.4807 104.596L34.3214 99.9614L30.7568 95.238Z" fill="#0092FF"/>
<path d="M55.3533 4.78379C55.3533 4.78379 51.8331 -2.43473 42.4758 0.862617C35.7028 -0.607892 30.534 7.41282 35.5246 18.3296L44.9266 20.5131L55.3533 4.78379Z" fill="#102048"/>
<path d="M50.3627 25.1917V37.9605C50.3627 40.9477 47.9387 43.3717 44.9515 43.3717C40.902 43.3717 37.6189 40.0886 37.6189 36.0391V25.1917H50.3627Z" fill="#F9B384"/>
<path d="M50.3627 30.4888V37.4542C44.6841 37.4827 40.9163 30.1395 40.9163 30.1395L50.3627 30.4888Z" fill="#E28B6D"/>
<path d="M55.9807 23.584C55.6384 25.3521 55.1501 27.163 54.4478 28.7564C53.2216 31.5547 51.3501 33.6864 48.4912 33.747C41.8003 33.8896 36.6386 24.7461 36.6386 24.7461L37.708 12.2697L42.7877 6.56616L56.7792 15.2106C56.7792 15.2106 56.8184 19.2672 55.9807 23.584Z" fill="#F9B384"/>
<path d="M37.4853 21.0922C37.4853 21.0922 38.8667 15.4778 43.679 11.824C43.679 11.824 50.6748 20.9586 58.0716 16.5473C65.4683 12.1359 62.2601 3.44699 55.3534 4.78375L47.422 3.89258L37.4853 7.05632L35.7921 14.8542L37.4853 21.0922Z" fill="#102048"/>
<path opacity="0.4" d="M44.5078 85.7996C37.7675 71.2357 29.2717 78.1868 27.1924 72.8398C24.2787 65.3475 24.831 56.8719 24.8158 54.3033L20.7562 77.1622C20.7562 77.1622 29.8198 78.0238 33.1706 83.4811L44.5078 85.7996Z" fill="#1F3C88"/>
<path d="M25.0226 53.9136C24.7698 55.8692 24.4719 57.8168 24.1639 59.7626C23.8645 61.7099 23.5124 63.648 23.1893 65.591C22.851 67.5315 22.4955 69.4688 22.1154 71.4019L21.5346 74.2996C21.3246 75.2626 21.1291 76.2281 20.9036 77.1884L20.6088 77.1362C20.7265 76.1569 20.8743 75.1829 21.0074 74.2063L21.4565 71.2853C21.7627 69.3392 22.094 67.3974 22.442 65.4588C22.8053 63.5228 23.14 61.5817 23.527 59.6499C23.9054 57.7166 24.2941 55.7851 24.7277 53.8616L25.0226 53.9136Z" fill="#1F3C88"/>
<path d="M64.4022 50.2983C64.9418 52.8381 65.4397 55.3851 65.9279 57.934C66.4241 60.4815 66.8715 63.0376 67.3457 65.589C67.7979 68.1443 68.2407 70.7012 68.671 73.2603L69.293 77.1034C69.485 78.3871 69.6905 79.6684 69.8682 80.9547L69.5938 81.0036C69.3159 79.7351 69.066 78.4618 68.8025 77.1908L68.0579 73.3697C67.5772 70.8195 67.1091 68.2671 66.6502 65.7129C66.2135 63.1549 65.75 60.6015 65.3352 58.0397C64.9124 55.4791 64.4993 52.9169 64.1279 50.3472L64.4022 50.2983Z" fill="#1F3C88"/>
<path opacity="0.4" d="M66.285 62.0864C66.7603 66.7205 66.0473 90.7227 54.878 91.0792L54.9968 96.3075L72.5826 95.2381L66.285 62.0864Z" fill="#1F3C88"/>
<path d="M43.3224 90.4257C51.2538 87.0392 52.7701 87.1654 53.8382 87.2174C57.492 87.3957 62.75 94.7033 62.75 94.7033L62.6609 96.0401H42.6094L43.3224 90.4257Z" fill="#E28B6D"/>
<path d="M73.8304 94.733H49.1448V98.476H73.8304V94.733Z" fill="white"/>
<path d="M107.398 98.479H64.5027L74.1274 60.1464H117.023L107.398 98.479Z" fill="#FBC343"/>
<path d="M111.286 82.8014C107.041 82.1674 93.3173 79.3156 65.0374 96.545L64.3839 98.9215L107.398 98.479L111.286 82.8014Z" fill="#C89B35"/>
<path d="M112.099 91.3168C111.831 93.1214 111.742 95.7727 106.15 95.4385L104.501 94.5918L106.061 92.8763L109.425 91.1608L112.099 91.3168Z" fill="#F9B384"/>
<path d="M112.626 86.445C112.626 86.445 115.686 90.4432 112.611 91.6733C109.269 93.01 106.061 92.8764 106.061 92.8764C107.487 88.8661 112.121 89.1335 112.121 89.1335L112.626 86.445Z" fill="#F9B384"/>
<path d="M112.715 83.8606C112.715 83.8606 116.933 87.7818 113.012 88.8808C107.475 90.433 105.764 90.5444 105.764 90.5444C105.467 87.6035 110.963 85.7024 110.963 85.7024L112.715 83.8606Z" fill="#F9B384"/>
<path d="M111.854 80.4445C111.854 80.4445 117.617 83.9498 112.21 85.9103C106.804 87.8709 105.526 87.8413 105.526 87.8413C105.229 84.9004 111.022 83.8904 111.022 83.8904L111.854 80.4445Z" fill="#F9B384"/>
<path d="M105.526 87.8412C105.526 87.8412 111.809 86.9501 113.681 85.4351" stroke="#E28B6D" stroke-width="2.5" stroke-miterlimit="10"/>
<path d="M105.764 90.5444C105.764 90.5444 112.299 89.6236 114.349 88.1977" stroke="#E28B6D" stroke-width="2.5" stroke-miterlimit="10"/>
<path d="M106.061 92.8765C106.061 92.8765 109.938 93.0103 112.121 91.9407" stroke="#E28B6D" stroke-width="2.5" stroke-miterlimit="10"/>
<path d="M45.1939 149.065C45.8474 148.708 56.185 150.966 67.6515 142.47L52.858 138.252L45.1939 149.065Z" fill="#102048"/>
<path d="M53.5709 103.259C53.5709 103.259 86.9009 87.3957 97.7732 88.1086C108.646 88.8215 108.289 102.367 104.19 108.249C100.09 114.131 90.4655 121.973 54.9968 119.656L53.5709 103.259Z" fill="#102048"/>
<path d="M70.2501 168.714C68.4464 169.223 65.8869 169.348 62.365 168.788C62.365 168.788 57.8022 169.972 53.3107 170.902C50.27 171.533 47.265 172.047 45.7286 171.997C45.5967 171.993 45.4648 171.986 45.3293 171.975C42.3813 171.765 38.6669 170.229 36.6956 168.033C36.6921 168.026 36.6885 168.018 36.6814 168.015C36.1395 167.409 35.7296 166.749 35.5086 166.058C34.4392 162.728 36.6992 158.69 48.9368 159.52C48.9368 159.52 52.9756 158.572 53.9274 155.599C54.8792 152.63 47.8674 138.371 47.8674 138.371L57.8485 131.598L67.6515 142.47C67.6515 142.47 69.1379 152.273 69.1379 155.481C69.1379 155.481 73.2944 161.424 73.8897 164.037C74.2711 165.705 73.437 167.812 70.2501 168.714Z" fill="#D3DFFF"/>
<path d="M14.1306 78.432C15.2739 77.9918 16.4387 77.6365 17.6165 77.3096C18.2059 77.1484 18.7992 76.9977 19.4035 76.8794C19.7051 76.8183 20.0101 76.7663 20.3192 76.7235C20.4748 76.7027 20.6293 76.6866 20.7909 76.6739C20.9624 76.6658 21.1305 76.6672 21.2905 76.6835C22.571 76.8178 23.7318 77.2202 24.8849 77.6462C26.032 78.0832 27.1549 78.5725 28.2574 79.1023C29.3633 79.6256 30.4394 80.2078 31.4981 80.8186C32.5563 81.4305 33.5974 82.0723 34.6094 82.759C36.6199 84.1469 38.5546 85.6713 40.2199 87.4678L40.0085 87.6798C39.1123 86.8691 38.1796 86.1027 37.2095 85.3852C36.247 84.6583 35.2507 83.9758 34.2321 83.3293C32.2113 82.0097 30.0893 80.8487 27.9296 79.7769C26.8489 79.2419 25.7487 78.7473 24.6308 78.3063C23.5139 77.8888 22.3702 77.4413 21.2324 77.2872C21.0902 77.2674 20.955 77.2626 20.8227 77.2634C20.6817 77.2702 20.5334 77.2816 20.3875 77.297C20.0941 77.3294 19.7988 77.3712 19.5036 77.4226C18.9136 77.5257 18.3224 77.6455 17.7334 77.7778C16.5563 78.0456 15.383 78.3577 14.2313 78.7141L14.1306 78.432Z" fill="#1F3C88"/>
<path d="M20.241 113.418C16.1416 106.823 16.1416 93.8121 21.3105 87.9303C27.2179 81.208 39.8469 78.6621 46.4416 86.5045C53.0363 94.3468 65.1562 123.043 67.6515 142.47C67.6515 142.47 54.2839 138.014 45.1939 149.065C45.1939 149.065 33.2522 121.795 30.7569 111.814L23.984 117.161L20.241 113.418Z" fill="#1F3C88"/>
<path d="M30.7568 111.814C30.7568 111.814 28.9745 111.16 26.4792 112.824C26.4792 112.824 6.99214 112.408 2.65519 116.805C-1.68191 121.201 1.64524 127.083 8.00224 127.736C13.3376 128.285 23.6949 124.146 26.8863 122.802C27.5345 122.529 28.2232 122.364 28.925 122.319L34.2028 121.973L30.7568 111.814Z" fill="#D3DFFF"/>
<path d="M38.539 21.4557C38.539 21.4557 37.2321 17.124 34.3568 18.207C31.4815 19.2899 33.0124 24.9285 38.6884 26.4969L38.539 21.4557Z" fill="#F9B384"/>
<path d="M35.477 45.3413C36.8961 46.3422 38.4086 47.2031 40.0127 47.8134C41.6154 48.4144 43.3065 48.7951 45.003 48.7547C46.6953 48.7341 48.3715 48.3167 49.8838 47.5433L50.453 47.254C50.6393 47.1514 50.8104 47.0222 50.9904 46.9074C51.3453 46.6701 51.7127 46.4474 52.0299 46.1559L52.5306 45.7497L52.782 45.5464C52.8634 45.4759 52.936 45.3958 53.0134 45.3209C53.3176 45.0152 53.626 44.712 53.9397 44.4105L54.1528 44.59C53.8722 44.9291 53.5863 45.2663 53.296 45.601C53.2226 45.6838 53.1542 45.7717 53.0764 45.8505L52.8352 46.0792L52.3505 46.5371C52.0357 46.8538 51.6658 47.1046 51.3064 47.3701C51.1241 47.499 50.9506 47.642 50.7602 47.7593L50.1763 48.0929C48.6136 48.9743 46.8114 49.4503 45.0104 49.4608C43.2094 49.465 41.4222 49.0746 39.7872 48.3713C38.1473 47.6751 36.6382 46.7108 35.305 45.5605L35.477 45.3413Z" fill="#1F3C88"/>
<path d="M27.8031 100.434L29.3477 105.838C29.8729 107.636 30.3642 109.442 30.9131 111.232C31.4504 113.024 31.9858 114.817 32.5495 116.6C32.8314 117.491 33.1098 118.384 33.4188 119.266C33.5695 119.708 33.7061 120.157 33.8657 120.596C34.0251 121.035 34.1804 121.476 34.3312 121.92L34.0742 122.027C33.6762 121.175 33.3032 120.31 32.9511 119.438C32.6009 118.565 32.2818 117.681 31.9589 116.798C31.3258 115.027 30.766 113.233 30.2354 111.431C29.7211 109.625 29.2125 107.818 28.7659 105.994C28.3142 104.172 27.8876 102.344 27.5318 100.499L27.8031 100.434Z" fill="#102048"/>
<path opacity="0.1" d="M70.2501 168.714C68.4464 169.223 65.8869 169.348 62.365 168.788C62.365 168.788 54.8186 170.72 50.0508 171.478C54.9523 170.498 62.0817 164.438 61.2796 160.606C68.3199 162.923 70.2359 166.443 70.2501 168.714Z" fill="#1F3C88"/>
<path opacity="0.4" d="M51.2966 169.384C50.3876 170.503 49.033 171.262 47.6107 171.644C46.8657 171.843 46.0993 171.95 45.3293 171.975C42.3813 171.765 38.6669 170.229 36.6956 168.033C36.6921 168.026 36.6885 168.018 36.6814 168.015C36.471 167.73 36.275 167.434 36.1039 167.127C37.1519 168.104 38.2926 168.903 39.5224 169.512C40.1391 169.804 40.7629 170.086 41.4153 170.282C41.7325 170.403 42.0641 170.475 42.392 170.567C42.7164 170.667 43.055 170.706 43.3901 170.767C46.053 171.216 48.8798 170.938 51.2966 169.384Z" fill="#1F3C88"/>
<path d="M37.2472 22.0703C37.181 21.6813 36.9981 21.3182 36.7828 20.9866C36.5626 20.6591 36.3003 20.353 35.997 20.1387C35.6933 19.9262 35.3636 19.8201 35.0857 19.9706C34.7938 20.1159 34.5627 20.4702 34.3609 20.8295L34.1636 20.7608C34.2486 20.3381 34.4048 19.8729 34.8474 19.5659C35.0657 19.4135 35.3646 19.3593 35.6242 19.4062C35.8852 19.4534 36.1135 19.5655 36.3062 19.7055C36.6911 19.9887 36.973 20.3565 37.1782 20.7585C37.3771 21.159 37.5201 21.6113 37.4562 22.0747L37.2472 22.0703Z" fill="#E28B6D"/>
<path d="M54.2078 21.9623C54.0825 22.5771 53.6192 23.0019 53.1732 22.9111C52.7271 22.8201 52.4671 22.2481 52.5925 21.6331C52.7178 21.0182 53.1809 20.5935 53.6271 20.6843C54.0731 20.7753 54.3332 21.3475 54.2078 21.9623Z" fill="#102048"/>
<path d="M47.2623 21.6849C47.3633 21.0655 47.0809 20.504 46.6316 20.4307C46.1822 20.3575 45.7361 20.8002 45.6352 21.4196C45.5342 22.039 45.8166 22.6005 46.2659 22.6738C46.7152 22.747 47.1614 22.3043 47.2623 21.6849Z" fill="#102048"/>
<path d="M50.2105 22.5291C50.2529 23.0352 50.2733 23.5389 50.279 24.0319C50.2989 24.2205 50.3866 24.3819 50.544 24.5534C50.6959 24.7235 50.8924 24.9013 51.0621 25.149C51.1471 25.2712 51.2138 25.4274 51.2466 25.5811C51.2822 25.7339 51.2866 25.8856 51.2767 26.0349C51.2514 26.3316 51.1463 26.6237 50.9489 26.8638C50.8523 26.9846 50.7231 27.0839 50.5824 27.1567C50.4363 27.2195 50.279 27.2598 50.1276 27.2525C49.823 27.2389 49.5611 27.121 49.3433 26.9684L49.4421 26.7842C49.6728 26.8594 49.9034 26.9173 50.107 26.8789C50.3089 26.8507 50.4698 26.7427 50.5771 26.577C50.7951 26.2519 50.8269 25.7432 50.6165 25.4399C50.5065 25.264 50.3245 25.0987 50.1519 24.8814C49.9775 24.6756 49.811 24.3648 49.8227 24.0414C49.8613 23.5235 49.9231 23.0163 50.0022 22.5117L50.2105 22.5291Z" fill="#E28B6D"/>
<path d="M44.4643 19.5446C44.7483 19.2613 45.086 19.026 45.4653 18.8573C45.8428 18.6875 46.2715 18.5936 46.7059 18.6204C47.1404 18.6456 47.5666 18.8072 47.9061 19.0601C48.2484 19.3111 48.5122 19.6369 48.7074 19.9885L48.5425 20.1168C48.2477 19.8659 47.9631 19.63 47.6524 19.4554C47.3427 19.281 47.0111 19.1749 46.6684 19.1512C45.9773 19.0983 45.2741 19.3735 44.5868 19.714L44.4643 19.5446Z" fill="#102048"/>
<path d="M51.7171 20.1549C51.835 19.7755 52.1504 19.4762 52.4979 19.2983C52.8488 19.115 53.2444 19.0375 53.6352 19.044C54.0263 19.0526 54.4194 19.1531 54.7599 19.3531C55.1006 19.5498 55.3826 19.8522 55.5299 20.2036L55.3548 20.3178C54.8703 19.8307 54.2613 19.5977 53.6214 19.576C52.9904 19.5619 52.3222 19.736 51.9046 20.2475L51.7171 20.1549Z" fill="#102048"/>
<path d="M46.8503 28.5254L51.5788 28.8623C51.5788 28.8623 48.9411 32.3609 46.8503 28.5254Z" fill="white"/>
<path opacity="0.4" d="M55.9807 23.5839C55.6385 25.352 55.1501 27.1629 54.4479 28.7563C53.5246 28.3214 52.8865 27.3803 52.8865 26.2895C52.8865 24.7817 54.1128 23.559 55.6207 23.559C55.7419 23.559 55.8631 23.5661 55.9807 23.5839Z" fill="#EE6F57"/>
<path opacity="0.4" d="M45.0052 28.1866C46.3968 27.6022 47.0512 26.0002 46.4668 24.6086C45.8824 23.2169 44.2804 22.5626 42.8888 23.147C41.4971 23.7314 40.8427 25.3334 41.4272 26.725C42.0116 28.1167 43.6135 28.771 45.0052 28.1866Z" fill="#EE6F57"/>
</svg>
